<?xml version="1.0" encoding="UTF-8"?>
<svg width="22px" height="23px" viewBox="0 0 22 23" version="1.1" xmlns="http://www.w3.org/2000/svg" xmlns:xlink="http://www.w3.org/1999/xlink">
    <!-- Generator: Sketch 61.2 (89653) - https://sketch.com -->
    <title>single-01</title>
    <desc>Created with Sketch.</desc>
    <g id="Page-1" stroke="none" stroke-width="1" fill="none" fill-rule="evenodd" stroke-linecap="round" stroke-linejoin="round">
        <g id="home/front-end-" transform="translate(-37.000000, -338.000000)" stroke="#EF7E94" stroke-width="1.72">
            <g id="single-01" transform="translate(38.000000, 339.000000)">
                <path d="M10,11 L10,11 C7.239,11 5,8.761 5,6 L5,5 C5,2.239 7.239,0 10,0 L10,0 C12.761,0 15,2.239 15,5 L15,6 C15,8.761 12.761,11 10,11 Z" id="Path"></path>
                <path d="M20,18.908 C20,17.108 18.803,15.525 17.066,15.052 C15.172,14.535 12.586,14 10,14 C7.414,14 4.828,14.535 2.934,15.052 C1.197,15.525 0,17.108 0,18.908 L0,21 L20,21 L20,18.908 Z" id="Path"></path>
            </g>
        </g>
    </g>
</svg>