<?xml version="1.0" encoding="UTF-8"?>
<svg width="28px" height="35px" viewBox="0 0 28 35" version="1.1" xmlns="http://www.w3.org/2000/svg" xmlns:xlink="http://www.w3.org/1999/xlink">
    <!-- Generator: Sketch 61.2 (89653) - https://sketch.com -->
    <title>Group 3</title>
    <desc>Created with Sketch.</desc>
    <g id="Page-1" stroke="none" stroke-width="1" fill="none" fill-rule="evenodd">
        <g id="home/front-end-" transform="translate(-35.000000, -387.000000)" stroke="#EF7E94" stroke-width="1.611">
            <g id="Group-3" transform="translate(36.000000, 388.000000)">
                <g id="Group">
                    <path d="M3.52997631e-15,24.223565 L0.372106039,18.5452268 L12.5627021,0.702440565 C13.3616948,-0.0841188267 14.1968435,-0.210114491 15.0681482,0.32445357 C15.939453,0.859021632 16.5306015,1.25571416 16.8415938,1.51453114 C17.5802863,2.2564274 17.7354678,2.99383269 17.3071383,3.72674701 C16.8788087,4.45966134 12.7923013,10.4933746 5.0476159,21.8278867 L3.52997631e-15,24.223565 Z" id="Path-2"></path>
                    <line x1="4.17525814" y1="18.1786819" x2="13.6696011" y2="3.98777328" id="Path-3"></line>
                    <line x1="0.372106039" y1="18.5452268" x2="5.0476159" y2="21.8278867" id="Path-4"></line>
                </g>
                <g id="Group-2" transform="translate(8.000000, 8.000000)">
                    <path d="M5.03076808,22.1433421 C5.86258129,20.8892147 5.73521203,19.7763968 4.64866031,18.8048882 C3.33908663,17.7291952 2.39140395,17.8835644 1.80561227,19.2679958 C0.926924748,21.344643 1.02157126,23.429801 0.117513663,24.3335651 C-0.786543933,25.2373292 3.78304827,24.0245332 5.03076808,22.1433421 Z" id="Path-5"></path>
                    <path d="M4.4861328,18.5538101 C8.32501482,9.82158121 12.2803096,3.80954684 16.3520171,0.517706974" id="Path-6"></path>
                    <path d="M5.18066893,19.3042687 C12.5126673,12.0116587 16.7118888,5.88630361 17.7783336,0.928203495" id="Path-7"></path>
                    <path d="M16.306317,0.552694744 C16.306317,0.552694744 18.1245622,-0.950379824 17.7783336,1.00091848" id="Path-8"></path>
                </g>
            </g>
        </g>
    </g>
</svg>