<?xml version="1.0" encoding="UTF-8"?>
<svg width="26px" height="26px" viewBox="0 0 26 26" version="1.1" xmlns="http://www.w3.org/2000/svg" xmlns:xlink="http://www.w3.org/1999/xlink">
    <!-- Generator: Sketch 61.2 (89653) - https://sketch.com -->
    <title>send-2</title>
    <desc>Created with Sketch.</desc>
    <g id="Page-1" stroke="none" stroke-width="1" fill="none" fill-rule="evenodd">
        <g id="home/front-end-" transform="translate(-35.000000, -496.000000)" fill="#FFFFFF" fill-rule="nonzero" stroke="#EF7E94" stroke-width="1.79">
            <g id="send-2" transform="translate(36.000000, 497.000000)">
                <path d="M23.8827929,0.117150299 C23.7735933,0.00715007041 23.609594,-0.0288500045 23.4635947,0.0239501054 L0.26369559,8.42396759 C0.112496247,8.4787677 0.00849669974,8.61916799 0.000496734531,8.77996833 C-0.00750323067,8.94076866 0.0816963814,9.09076897 0.22689575,9.16076912 L8.58125941,13.1707775 L16.1276266,7.59276586 C16.3124258,7.45636557 16.5440248,7.68796605 16.4072254,7.87236644 L10.8296496,15.4187821 L14.8396322,23.7731995 C14.9064319,23.9119998 15.0468313,24 15.2000306,24 C15.2068306,24 15.2132306,24 15.2200305,23.9996 C15.3808298,23.9912 15.5212292,23.8875998 15.576429,23.7363995 L23.9763925,0.536351172 C24.0287922,0.390350868 23.9923924,0.226750527 23.8827929,0.117150299 Z" id="Path"></path>
            </g>
        </g>
    </g>
</svg>